<?xml version="1.0" encoding="utf-8"?>
<!-- Generator: Adobe Illustrator 28.0.0, SVG Export Plug-In . SVG Version: 6.00 Build 0)  -->
<svg version="1.1" id="Layer_1" xmlns="http://www.w3.org/2000/svg" xmlns:xlink="http://www.w3.org/1999/xlink" x="0px" y="0px"
	 viewBox="0 0 32 32" style="enable-background:new 0 0 32 32;" xml:space="preserve">
<style type="text/css">
	.Drop_x0020_Shadow{fill:none;}
	.Round_x0020_Corners_x0020_2_x0020_pt{fill:#FFFFFF;stroke:#231F20;stroke-miterlimit:10;}
	.Live_x0020_Reflect_x0020_X{fill:none;}
	.Bevel_x0020_Soft{fill:url(#SVGID_1_);}
	.Dusk{fill:#FFFFFF;}
	.Foliage_GS{fill:#FFDD00;}
	.Pompadour_GS{fill-rule:evenodd;clip-rule:evenodd;fill:#44ADE2;}
</style>
<linearGradient id="SVGID_1_" gradientUnits="userSpaceOnUse" x1="0" y1="0" x2="0.7071" y2="0.7071">
	<stop  offset="0" style="stop-color:#DEDFE3"/>
	<stop  offset="0.1783" style="stop-color:#DADBDF"/>
	<stop  offset="0.3611" style="stop-color:#CECFD3"/>
	<stop  offset="0.546" style="stop-color:#B9BCBF"/>
	<stop  offset="0.7324" style="stop-color:#9CA0A2"/>
	<stop  offset="0.9181" style="stop-color:#787D7E"/>
	<stop  offset="1" style="stop-color:#656B6C"/>
</linearGradient>
<g>
	<path d="M18.4,19.4c-0.7-0.4-1.8-0.6-3.4-0.6h-1.9c-0.9,0-1.3-0.3-1.4-0.7c0-0.2,0-0.4,0.1-0.6c0.1-0.2,0.3-0.4,0.5-0.4
		c0,0,0.6,0.1,1.5,0.1c1.3,0,2.3-0.4,3.2-1.2c0.8-0.8,1.2-1.7,1.2-2.9c0-0.6-0.1-1.1-0.4-1.7c-0.2-0.5,0.1-0.8,0.5-0.9
		c0.2,0,0.5,0,0.6,0c0.3,0,0.4,0,0.4,0V9.7h-3.3c-0.4-0.2-1-0.4-1.3-0.4c-0.4-0.1-0.8-0.1-1.3-0.1c-1.4,0-2.5,0.4-3.4,1.1
		C9.3,11,8.8,12,8.8,13.2c0,0.9,0.2,1.6,0.6,2.2c0.4,0.6,1.1,1.1,1.9,1.4c-0.7,0.3-1.2,0.6-1.6,1c-0.4,0.3-0.6,0.7-0.6,1.2
		c0,0.6,0.4,1.1,1.2,1.5C8.8,21,8,21.8,8,22.8c0,0.7,0.5,1.3,1.5,1.8s2.3,0.7,4,0.7c1.8,0,3.2-0.4,4.3-1c1.1-0.7,1.6-1.6,1.6-2.8
		C19.4,20.5,19.1,19.8,18.4,19.4z M12.2,11c0.3-0.5,0.7-0.8,1.3-0.8s1,0.3,1.3,0.8c0.3,0.5,0.5,1.3,0.5,2.3s-0.1,1.8-0.5,2.3
		c-0.3,0.5-0.7,0.8-1.3,0.8c-0.6,0-1-0.3-1.3-0.8c-0.3-0.5-0.5-1.3-0.5-2.3S11.8,11.5,12.2,11z M15.8,23.7c-0.5,0.4-1.2,0.6-2.1,0.6
		c-0.8,0-1.4-0.2-2-0.6c-0.5-0.4-0.8-0.9-0.8-1.4c0-0.4,0.1-0.9,0.4-1.5h2.9c0.9,0,1.4,0.1,1.8,0.3c0.4,0.2,0.6,0.5,0.6,1
		C16.6,22.7,16.3,23.3,15.8,23.7z"/>
	<path d="M28.5,9.7v0.8H30l-2.3,5.8l-2.6-5.8h2.1V9.7l-7,0v0v0.8h1.1c0.3,0,0.4,0.1,0.5,0.3l0,0l4.5,9.9h0.5l4.1-10.2H32V9.7H28.5z"
		/>
	<path d="M8.1,10.6V9.7H4.7v-3h-1L1.7,7.7v2.1H0v0.8h1.1c0.4,0,0.6,0.3,0.6,0.6v5.8c0,1.6,0.3,2.5,0.9,3.2c0.7,0.8,1.7,1,2.8,1
		c0.6,0,1.2-0.1,1.8-0.2l0.4-0.1l0-1L7,19.8c0,0-0.5,0.1-1,0.1c-0.6-0.1-0.9-0.3-1-0.4c-0.2-0.3-0.3-0.8-0.3-1.7v-7.2H8.1z"/>
</g>
</svg>
