<?xml version="1.0" encoding="utf-8"?>
<!-- Generator: Adobe Illustrator 28.0.0, SVG Export Plug-In . SVG Version: 6.00 Build 0)  -->
<svg version="1.1" id="Layer_1" xmlns="http://www.w3.org/2000/svg" xmlns:xlink="http://www.w3.org/1999/xlink" x="0px" y="0px"
	 viewBox="0 0 512 512" style="enable-background:new 0 0 512 512;" xml:space="preserve">
<style type="text/css">
	.st0{fill:#0277C0;stroke:#0277C0;stroke-miterlimit:10;}
</style>
<path class="st0" d="M320,96c0,54.5,63.8,132.1,82.7,154c3.3,3.9,8.2,6,13.3,6s9.9-2.1,13.3-6c19-21.9,82.7-99.6,82.7-154
	c0-53-43-96-96-96S320,43,320,96z M384,96c0-17.7,14.3-32,32-32s32,14.3,32,32s-14.3,32-32,32S384,113.7,384,96z M0,352
	c0,54.5,63.8,132.1,82.7,154c3.3,3.9,8.2,6,13.3,6s9.9-2.1,13.3-6c19-21.9,82.7-99.6,82.7-154c0-53-43-96-96-96S0,299,0,352z
	 M64,352c0-17.7,14.3-32,32-32s32,14.3,32,32s-14.3,32-32,32S64,369.7,64,352z"/>
<g>
	<path d="M106.5,508.6c1-0.7,1.9-1.6,2.8-2.6C108.5,507,107.5,507.8,106.5,508.6z"/>
	<path d="M101.6,511.1c1.2-0.4,2.3-0.9,3.4-1.5C103.9,510.2,102.7,510.7,101.6,511.1z"/>
	<path d="M109.3,506c5.4-6.2,14.5-17,24.7-30.5C123.8,489,114.7,499.7,109.3,506z"/>
	<path d="M416,320h-96c-17.7,0-32-14.3-32-32s14.3-32,32-32h51.2c-11.4-14-26.6-33.8-40.6-55.8c-1.7-2.8-3.4-5.5-5.1-8.2H320
		c-53,0-96,43-96,96s43,96,96,96h96c17.7,0,32,14.3,32,32s-14.3,32-32,32H186.5c-1.6,2.7-3.3,5.4-5,8.1
		c-14.1,22.3-29.2,42-40.6,55.9H416c53,0,96-43,96-96S469,320,416,320z"/>
	<path d="M135.2,473.8C135.2,473.8,135.2,473.8,135.2,473.8C135.2,473.8,135.2,473.8,135.2,473.8z"/>
</g>
</svg>
