<?xml version="1.0" encoding="utf-8"?>
<!-- Generator: Adobe Illustrator 28.0.0, SVG Export Plug-In . SVG Version: 6.00 Build 0)  -->
<svg version="1.1" id="Layer_1" xmlns="http://www.w3.org/2000/svg" xmlns:xlink="http://www.w3.org/1999/xlink" x="0px" y="0px"
	 viewBox="0 0 548.5 512" style="enable-background:new 0 0 548.5 512;" xml:space="preserve">
<style type="text/css">
	.st0{fill:#0277C0;}
</style>
<g>
	<path class="st0" d="M101.8,195c8.8-24.9,23.1-48.3,43.2-68.3c71.4-71.4,187.2-71.4,258.6,0l19.5,19.7h-57.5h-36.6v73.1h36.6H512
		h36.6v-36.6V36.6V0h-73.1v36.6v58.5L455.3,75c-100-100-262-100-362,0c-27.9,27.9-48,60.7-60.3,95.8l69,24.3L101.8,195z"/>
	<path d="M73.1,417l20.1,20l0,0c100,99.9,262,99.9,361.9,0c27.9-27.9,48.1-60.7,60.5-95.7l-69-24.3c-8.8,24.9-23.1,48.3-43.2,68.3
		c-71.4,71.4-187.2,71.4-258.6,0l-0.1-0.1l-19.4-19.5h57.6h36.6v-73.1h-36.6H36.6H0v36.6v146.3V512h73.1v-36.6V417z"/>
</g>
</svg>
