<?xml version="1.0" encoding="utf-8"?>
<!-- Generator: Adobe Illustrator 28.0.0, SVG Export Plug-In . SVG Version: 6.00 Build 0)  -->
<svg version="1.1" id="Layer_1" xmlns="http://www.w3.org/2000/svg" xmlns:xlink="http://www.w3.org/1999/xlink" x="0px" y="0px"
	 viewBox="0 0 640 512" style="enable-background:new 0 0 640 512;" xml:space="preserve">
<style type="text/css">
	.st0{fill:#0277C0;}
</style>
<path class="st0" d="M320,0c-97.2,0-176,78.8-176,176c0,37.3,11.6,71.9,31.4,100.4c5,7.2,10.2,14.3,15.4,21.4
	c19.7,27.1,39.6,54.3,49.2,86.2h160c9.5-31.8,29.4-59.1,49.2-86.2v-0.1c5.2-7.1,10.4-14.2,15.4-21.4c19.8-28.4,31.4-63,31.4-100.3
	C496,78.8,417.2,0,320,0z M344,304h-48v-48h48V304z M344,88v112v24h-48v-24V88V64h48V88z"/>
<polygon points="87.3,16 93.3,20 117.3,36 137.3,49.3 110.7,89.3 90.7,76 66.7,60 60.7,56 40.7,42.7 67.3,2.7 "/>
<polygon points="579.3,56 573.3,60 549.3,76 529.3,89.3 502.7,49.3 522.7,36 546.7,20 552.7,16 572.7,2.7 599.3,42.6 "/>
<polygon points="24,160 72,160 96,160 96,208 72,208 24,208 0,208 0,160 "/>
<polygon points="568,160 616,160 640,160 640,208 616,208 568,208 544,208 544,160 "/>
<polygon points="117.3,332 93.3,348 87.3,352 67.3,365.3 40.7,325.3 60.7,312 66.7,308 90.7,292 110.7,278.7 137.3,318.6 
	117.3,331.9 "/>
<polygon points="549.3,292.1 573.3,308.1 579.3,312.1 599.3,325.4 572.7,365.3 552.7,352 546.7,348 522.7,332 502.7,318.7 
	529.3,278.8 "/>
<path d="M400,432c0,44.2-35.8,80-80,80s-80-35.8-80-80v-16h160V432z"/>
</svg>
