<?xml version="1.0" encoding="utf-8"?>
<!-- Generator: Adobe Illustrator 28.0.0, SVG Export Plug-In . SVG Version: 6.00 Build 0)  -->
<svg version="1.1" id="Layer_1" xmlns="http://www.w3.org/2000/svg" xmlns:xlink="http://www.w3.org/1999/xlink" x="0px" y="0px"
	 viewBox="0 0 640 512" style="enable-background:new 0 0 640 512;" xml:space="preserve">
<style type="text/css">
	.st0{fill:#0277C0;}
</style>
<path class="st0" d="M496,224c-79.5,0-144,64.5-144,144s64.5,144,144,144s144-64.5,144-144S575.5,224,496,224z M560,384h-16h-48h-16
	v-16v-64v-16h32v16v48h32h16V384z"/>
<path d="M176,56v40h160V56c0-4.4-3.6-8-8-8H184C179.6,48,176,51.6,176,56z M128,96V56c0-30.9,25.1-56,56-56h144
	c30.9,0,56,25.1,56,56v40h64c35.3,0,64,28.7,64,64v32.7c-5.3-0.5-10.6-0.7-16-0.7c-54.7,0-103.5,24.9-135.8,64H352H192H0v-96
	c0-35.3,28.7-64,64-64H128z M320.7,352c-0.5,5.3-0.7,10.6-0.7,16c0,42.5,15.1,81.6,40.2,112H64c-35.3,0-64-28.7-64-64V288h192v32
	c0,17.7,14.3,32,32,32h96C320.2,352,320.5,352,320.7,352z"/>
</svg>
