<?xml version="1.0" encoding="utf-8"?>
<!-- Generator: Adobe Illustrator 28.0.0, SVG Export Plug-In . SVG Version: 6.00 Build 0)  -->
<svg version="1.1" id="Layer_1" xmlns="http://www.w3.org/2000/svg" xmlns:xlink="http://www.w3.org/1999/xlink" x="0px" y="0px"
	 viewBox="0 0 564 512" style="enable-background:new 0 0 564 512;" xml:space="preserve">
<style type="text/css">
	.st0{fill:#0277C0;}
</style>
<g>
	<path d="M388,0h-32v64h32h28.8l-109.4,87.5L199.2,70.4l-19.8-14.9L160,71L0,199l40,50l140.6-112.5l108.2,81.1l19.3,14.5
		c4.4-3.6,9-7.1,13.8-10.3l6.1-4.8l140-112v39v32h64v-32V32V0h-32H388z"/>
	<rect x="148" y="224" width="64" height="256"/>
	<rect x="20" y="320" width="64" height="160"/>
	<g>
		<path class="st0" d="M420,224c-79.5,0-144,64.5-144,144s64.5,144,144,144s144-64.5,144-144S499.5,224,420,224z M454.3,432.5
			c-5.8,3.1-12.1,5.1-18.3,6.2v10.8v16h-32v-16v-11.4c-8.6-1.7-16.7-4.3-23.7-6.6c-1.7-0.6-3.4-1.1-5-1.6l-15.3-4.7l9.5-30.6
			l15.3,4.8c2,0.6,3.9,1.2,5.8,1.8c11.4,3.6,20.4,6.5,29.9,6.8c6.7,0.2,13.8-1.1,18.5-3.6c2.2-1.2,3.4-2.4,4-3.3
			c0.5-0.8,1.1-2.1,1-4.5c0-1.4-0.2-3-4.7-5.6c-5.3-3.1-12.9-5.4-23.2-8.3l-1.8-0.5c-8.9-2.5-19.8-5.6-28.6-10.3
			c-9.9-5.3-20.6-14.7-21.6-30.7c-1.2-18.8,10-30.9,21.8-37.2c5.7-3.1,12-5.1,18-6.3V288v-16h32v16v9.4c6.3,0.9,12.3,2.3,17.9,3.7
			l15.5,3.9l-7.7,31.1l-15.5-3.9c-9.3-2.3-18.2-4-26.4-4.1c-6.2-0.1-13.6,1.3-18.7,4c-2.4,1.3-3.6,2.5-4.2,3.4
			c-0.4,0.7-0.9,1.6-0.8,3.6l0.1-0.1v0.1c0,0.4,0,1.9,4.8,4.5c5.6,3,13.5,5.2,23.9,8.2h0.2c9.3,2.6,21.1,6,30.5,11.5
			c10.2,6,20,16.1,20.5,32.3C476.5,413.8,466.3,426,454.3,432.5z"/>
	</g>
</g>
</svg>
