<?xml version="1.0" encoding="utf-8"?>
<!-- Generator: Adobe Illustrator 28.0.0, SVG Export Plug-In . SVG Version: 6.00 Build 0)  -->
<svg version="1.1" id="Layer_1" xmlns="http://www.w3.org/2000/svg" xmlns:xlink="http://www.w3.org/1999/xlink" x="0px" y="0px"
	 viewBox="0 0 640 512" style="enable-background:new 0 0 640 512;" xml:space="preserve">
<style type="text/css">
	.st0{fill:#0277C0;}
</style>
<path d="M496,192c4.6,0,9.3,0.2,13.8,0.5C494.5,83.7,401,0,288,0c-5.4,0-10.7,0.2-16,0.6V240h103.2C406.7,210.2,449.2,192,496,192z"
	/>
<path d="M320,368c0-28.8,6.9-56,19.2-80H224V32.5C98.9,40.8,0,144.8,0,272c0,132.6,107.5,240,240,240c43.8,0,84.8-11.7,120.1-32.2
	C335,449.4,320,410.5,320,368z"/>
<path class="st0" d="M496,224c-79.5,0-144,64.5-144,144s64.5,144,144,144s144-64.5,144-144S575.5,224,496,224z M530.2,432.5
	c-5.8,3.1-12.1,5.1-18.3,6.2v10.8v16H480v-16v-11.4c-8.6-1.7-16.7-4.3-23.7-6.6c-1.7-0.6-3.4-1.1-5-1.6l-15.3-4.7l9.5-30.6l15.3,4.8
	c2,0.6,3.9,1.2,5.8,1.8c11.4,3.6,20.4,6.5,29.9,6.8c6.7,0.2,13.8-1.1,18.5-3.6c2.2-1.2,3.4-2.4,4-3.3c0.5-0.8,1.1-2.1,1-4.5
	c0-1.4-0.2-3-4.7-5.6c-5.3-3.1-12.9-5.4-23.2-8.3l-1.8-0.5c-8.9-2.5-19.8-5.6-28.6-10.3c-9.9-5.3-20.6-14.7-21.6-30.7
	c-1.2-18.8,10-30.9,21.8-37.2c5.7-3.1,12-5.1,18-6.3V288v-16h32v16v9.4c6.3,0.9,12.3,2.3,17.9,3.7l15.5,3.9l-7.7,31.1l-15.5-3.9
	c-9.3-2.3-18.2-4-26.4-4.1c-6.2-0.1-13.6,1.3-18.7,4c-2.4,1.3-3.6,2.5-4.2,3.4v-0.1c-0.4,0.7-0.9,1.6-0.8,3.6v0.1
	c0,0.4,0,1.9,4.8,4.5c5.6,3,13.5,5.2,23.9,8.2h0.2c9.3,2.6,21.1,6,30.5,11.5c10.2,6,20,16.1,20.5,32.3
	C552.4,413.8,542.2,426,530.2,432.5z"/>
</svg>
