<?xml version="1.0" encoding="utf-8"?>
<!-- Generator: Adobe Illustrator 28.0.0, SVG Export Plug-In . SVG Version: 6.00 Build 0)  -->
<svg version="1.1" id="Layer_1" xmlns="http://www.w3.org/2000/svg" xmlns:xlink="http://www.w3.org/1999/xlink" x="0px" y="0px"
	 viewBox="0 0 512 286.4" style="enable-background:new 0 0 512 286.4;" xml:space="preserve">
<style type="text/css">
	.st0{fill:#BFBFBF;}
	.st1{fill:#222222;}
	.st2{fill:#404040;enable-background:new    ;}
	.st3{opacity:0.5;fill:#7F7F7F;enable-background:new    ;}
</style>
<g>
	<path class="st0" d="M319.8,8.6L319.8,8.6c30.8-17.4,70.4-6.9,88.5,23.5l94.8,158.8c18.1,30.4,7.9,69.1-22.9,86.5l0,0
		c-30.8,17.4-70.4,6.9-88.5-23.5L296.9,95.1C278.8,64.7,289,26,319.8,8.6z"/>
	<path d="M127,9.2L127,9.2c30.8-17.4,70.4-6.9,88.5,23.5l94.8,158.8c18.1,30.4,7.9,69.1-22.9,86.5l0,0
		c-30.8,17.4-70.4,6.9-88.5-23.5L104.1,95.6C85.9,65.3,96.2,26.6,127,9.2z"/>
	<path class="st1" d="M190,8.1L190,8.1c30.9,17.1,41.6,55.7,23.8,86.3L120.7,254c-17.8,30.5-57.3,41.4-88.3,24.3l0,0
		C1.5,261.2-9.2,222.6,8.6,192.1l93.1-159.7C119.5,1.9,159.1-9,190,8.1z"/>
	<path class="st0" d="M256.4,103.7c-29,54.2-64.2,107.9-96.4,84.9l44.4,73c33.7,40.2,88.8,25.3,105.6-7.4l44.4-77.2
		c34.3-75.1,90.8-59.8,114.8-41.9L406.4,29.3c-39.8-52.1-91.8-23.3-108.7,0L256.4,103.7z"/>
</g>
<path class="st2" d="M257.1,102.5l-0.7,1.3c-29,54.2-64.2,107.9-96.4,84.9l44.4,73c33.7,40.2,88.8,25.3,105.6-7.4l5.5-9.7
	c6-16.9,4.7-36.3-5.3-53.1L257.1,102.5z"/>
<path class="st3" d="M469.1,135L406.4,29.3c-6.6-8.7-13.6-15.1-20.6-19.7c-11.5-6.8-24.9-10.1-38.2-9.2c-21.2,2.4-39.7,15.6-49,27.8
	c-0.5,0.7-1,1.5-1.5,2.3l-2.6,4.6c-9.2,18.4-9.1,40.9,2.3,60l53.3,89.2l4.2-7.4C388.7,101.9,445.2,117.1,469.1,135z"/>
</svg>
