<?xml version="1.0" encoding="utf-8"?>
<!-- Generator: Adobe Illustrator 28.0.0, SVG Export Plug-In . SVG Version: 6.00 Build 0)  -->
<svg version="1.1" id="Layer_1" xmlns="http://www.w3.org/2000/svg" xmlns:xlink="http://www.w3.org/1999/xlink" x="0px" y="0px"
	 viewBox="0 0 512 512" style="enable-background:new 0 0 512 512;" xml:space="preserve">
<style type="text/css">
	.st0{fill:#7F7F7F;}
</style>
<g>
	<g>
		<path class="st0" d="M136,390.8c-3.8,0-7.6-1.4-10.5-4.3c-5.8-5.8-5.8-15.2,0-21l53.2-53.2c5.8-5.8,15.2-5.8,21,0s5.8,15.2,0,21
			l-53.2,53.2C143.6,389.4,139.8,390.8,136,390.8z"/>
	</g>
	<g>
		<path class="st0" d="M64.1,356.1c-3.8,0-7.6-1.4-10.5-4.3c-5.8-5.8-5.8-15.2,0-21l43.2-43.2c5.8-5.8,15.2-5.8,21,0s5.8,15.2,0,21
			l-43.2,43.2C71.7,354.6,67.9,356.1,64.1,356.1z"/>
	</g>
	<g>
		<path class="st0" d="M170.6,462.6c-3.8,0-7.6-1.5-10.5-4.3c-5.8-5.8-5.8-15.2,0-21l43.2-43.2c5.8-5.8,15.2-5.8,21,0s5.8,15.2,0,21
			l-43.2,43.2C178.2,461.2,174.4,462.6,170.6,462.6z"/>
	</g>
	<path d="M493.7,0c-1.9,0-3.9,0.3-5.9,1l-15,5l0,0L151.3,113.2L12.6,159.4c-17.1,5.7-16.6,30.1,0.8,35.1l24.5,7l0,0L250,262.1
		l19.5,68.3l48.1,168.2c2.5,8.8,10.1,13.3,17.7,13.3c7.3,0,14.6-4.2,17.4-12.6L405.4,341L506,39.2l0,0l5-15
		C515.1,11.8,505.6,0,493.7,0z M259.5,234l-1.4-0.4L56.6,176L447.9,45.6L259.5,234z"/>
</g>
</svg>
