<?xml version="1.0" encoding="utf-8"?>
<!-- Generator: Adobe Illustrator 28.0.0, SVG Export Plug-In . SVG Version: 6.00 Build 0)  -->
<svg version="1.1" id="Layer_1" xmlns="http://www.w3.org/2000/svg" xmlns:xlink="http://www.w3.org/1999/xlink" x="0px" y="0px"
	 viewBox="0 0 25 24" style="enable-background:new 0 0 25 24;" xml:space="preserve">
<style type="text/css">
	.st0{fill:#FFFFFF;}
</style>
<g>
	<g>
		<path class="st0" d="M2.9706,5.0909c0-0.60607,0.21462-1.10607,0.64387-1.49999C4.04372,3.19696,4.60176,3,5.28855,3
			c0.67456,0,1.2203,0.19392,1.6373,0.58181c0.42925,0.4,0.64387,0.9212,0.64387,1.56364c0,0.58181-0.20848,1.06665-0.62548,1.45454
			c-0.42925,0.4-0.99341,0.6-1.69248,0.6h-0.0184c-0.67455,0-1.22029-0.2-1.63729-0.6C3.17908,6.2,2.9706,5.69696,2.9706,5.0909z
			 M3.20974,21V8.85453h4.08404V21H3.20974z M9.55657,21h4.08399v-6.78187c0-0.42427,0.04913-0.75145,0.14718-0.98174
			c0.17174-0.4122,0.43232-0.76066,0.78183-1.04548c0.34962-0.28482,0.78808-0.42723,1.31538-0.42723
			c1.37361,0,2.06047,0.91514,2.06047,2.74542V21h4.08399v-6.96367c0-1.79396-0.42925-3.15455-1.28774-4.08176
			c-0.8585-0.92731-1.99292-1.39093-3.40338-1.39093c-1.58209,0-2.81467,0.67272-3.69773,2.01818v0.03632h-0.01832l0.01832-0.03632
			V8.85453H9.55657c0.02456,0.38788,0.03674,1.59398,0.03674,3.61813C9.59331,14.49692,9.58113,17.33933,9.55657,21z"/>
	</g>
</g>
</svg>
