<?xml version="1.0" encoding="utf-8"?>
<!-- Generator: Adobe Illustrator 28.0.0, SVG Export Plug-In . SVG Version: 6.00 Build 0)  -->
<svg version="1.1" id="Layer_1" xmlns="http://www.w3.org/2000/svg" xmlns:xlink="http://www.w3.org/1999/xlink" x="0px" y="0px"
	 viewBox="0 0 69 40" style="enable-background:new 0 0 69 40;" xml:space="preserve">
<style type="text/css">
	.Drop_x0020_Shadow{fill:none;}
	.Round_x0020_Corners_x0020_2_x0020_pt{fill:#FFFFFF;stroke:#231F20;stroke-miterlimit:10;}
	.Live_x0020_Reflect_x0020_X{fill:none;}
	.Bevel_x0020_Soft{fill:url(#SVGID_1_);}
	.Dusk{fill:#FFFFFF;}
	.Foliage_GS{fill:#FFDD00;}
	.Pompadour_GS{fill-rule:evenodd;clip-rule:evenodd;fill:#44ADE2;}
</style>
<linearGradient id="SVGID_1_" gradientUnits="userSpaceOnUse" x1="-221.5" y1="-236" x2="-220.7929" y2="-235.2929">
	<stop  offset="0" style="stop-color:#DEDFE3"/>
	<stop  offset="0.1783" style="stop-color:#DADBDF"/>
	<stop  offset="0.3611" style="stop-color:#CECFD3"/>
	<stop  offset="0.546" style="stop-color:#B9BCBF"/>
	<stop  offset="0.7324" style="stop-color:#9CA0A2"/>
	<stop  offset="0.9181" style="stop-color:#787D7E"/>
	<stop  offset="1" style="stop-color:#656B6C"/>
</linearGradient>
<g>
	<path d="M39.6,27.4c-1.5-0.9-3.8-1.3-7.3-1.3h-4.2c-1.9,0-2.7-0.6-2.9-1.6c-0.1-0.4,0-0.9,0.2-1.2c0.2-0.4,0.7-0.8,1-0.9
		c0,0,1.4,0.3,3.3,0.3c2.9,0,5-0.8,6.8-2.5c1.8-1.7,2.7-3.7,2.7-6.2c0-1.2-0.3-2.5-0.9-3.6c-0.4-1,0.2-1.8,1.2-1.9
		c0.5,0,1.1-0.1,1.4-0.1c0.7,0,0.9,0,0.9,0V6.5h-7.2c-0.9-0.5-2.1-0.8-2.8-0.9c-0.8-0.1-1.7-0.2-2.7-0.2c-3.1,0-5.4,0.8-7.3,2.4
		C20,9.3,19,11.4,19,14.1c0,1.9,0.5,3.5,1.4,4.8c0.9,1.3,2.3,2.3,4.2,3C23,22.6,22,23.3,21.1,24c-0.8,0.7-1.2,1.6-1.2,2.5
		c0,1.2,0.8,2.3,2.5,3.2c-3.5,1.1-5.2,2.8-5.2,5c0,1.5,1.1,2.8,3.3,3.8s5.1,1.5,8.5,1.5c3.9,0,7-0.8,9.4-2.3
		c2.4-1.5,3.5-3.5,3.5-5.9C41.9,29.7,41.1,28.2,39.6,27.4z M26.2,9.3c0.7-1.1,1.6-1.6,2.9-1.6s2.3,0.6,2.9,1.6c0.6,1.1,1,2.7,1,4.9
		s-0.3,3.8-1,4.9c-0.6,1.1-1.6,1.7-2.9,1.7c-1.3,0-2.2-0.6-2.9-1.7c-0.7-1.1-1-2.7-1-4.9S25.5,10.3,26.2,9.3z M34,36.6
		c-1.2,0.9-2.7,1.4-4.4,1.4c-1.6,0-3.1-0.4-4.2-1.3c-1.2-0.9-1.7-2-1.7-3.1c0-0.8,0.2-1.9,0.9-3.2h6.2c2,0,2.9,0.2,3.8,0.7
		c0.8,0.5,1.3,1.1,1.3,2.1C35.8,34.5,35.2,35.6,34,36.6z"/>
	<path d="M61.5,6.5v1.8h3.2l-4.9,12.6L54.1,8.3h4.6V6.5l-15.1,0v0v1.8H46c0.6,0,1,0.3,1.1,0.7l0,0l9.6,21.4h1l8.8-22H69V6.5H61.5z"
		/>
	<path d="M17.4,8.3V6.5h-7.2V0H8L3.6,2v4.5H0v1.7h2.3c0.9,0,1.2,0.7,1.2,1.3V22c0,3.3,0.6,5.3,2,6.9c1.6,1.7,3.6,2.1,6,2.1
		c1.2,0,2.6-0.2,4-0.5l0.9-0.2l0-2.3l-1.4,0.3c0,0-1.2,0.2-2.2,0.1c-1.4-0.1-1.9-0.6-2.1-0.9c-0.5-0.7-0.6-1.7-0.6-3.7V8.3H17.4z"/>
</g>
</svg>
